{"accessors" : [{"bufferView" : 0, "byteOffset" : 0, "componentType" : 5123, "count" : 588, "type" : "SCALAR", "max" : [495], "min" : [0]}, {"bufferView" : 1, "byteOffset" : 0, "componentType" : 5126, "count" : 496, "type" : "VEC3", "max" : [10, 1000, 0], "min" : [0, 0, -1000], "name" : "POSITION"}, {"bufferView" : 1, "byteOffset" : 12, "componentType" : 5126, "count" : 496, "type" : "VEC2", "max" : [3.9370079040527344, 1.9685039520263672], "min" : [-1.9685039520263672, -1.9685039520263672], "name" : "TEXCOORD_0"}, {"bufferView" : 1, "byteOffset" : 20, "componentType" : 5126, "count" : 496, "type" : "VEC3", "max" : [1.0000044107437134, 1.0000044107437134, 1.0000044107437134], "min" : [-1.0000044107437134, -1.0000044107437134, -1.0000044107437134], "name" : "NORMAL"}, {"bufferView" : 0, "byteOffset" : 1176, "componentType" : 5123, "count" : 456, "type" : "SCALAR", "max" : [391], "min" : [0]}, {"bufferView" : 2, "byteOffset" : 0, "componentType" : 5126, "count" : 392, "type" : "VEC3", "max" : [10, 1000, 0], "min" : [0, 9.128865242004395, -1000], "name" : "POSITION"}, {"bufferView" : 2, "byteOffset" : 12, "componentType" : 5126, "count" : 392, "type" : "VEC2", "max" : [0.03937000036239624, 0.023499999195337296], "min" : [-0.08661399781703949, -0.03937000036239624], "name" : "TEXCOORD_0"}, {"bufferView" : 2, "byteOffset" : 20, "componentType" : 5126, "count" : 392, "type" : "VEC3", "max" : [0, 1.0000044107437134, 1.0000044107437134], "min" : [0, -0.9848118424415588, -1.0000044107437134], "name" : "NORMAL"}, {"bufferView" : 0, "byteOffset" : 2088, "componentType" : 5123, "count" : 564, "type" : "SCALAR", "max" : [502], "min" : [0]}, {"bufferView" : 3, "byteOffset" : 0, "componentType" : 5126, "count" : 503, "type" : "VEC3", "max" : [40, 995, 0], "min" : [10, -0, -22], "name" : "POSITION"}, {"bufferView" : 3, "byteOffset" : 12, "componentType" : 5126, "count" : 503, "type" : "VEC2", "max" : [3.9370079040527344, 1.9685039520263672], "min" : [-0.08661399781703949, -1.9488190412521362], "name" : "TEXCOORD_0"}, {"bufferView" : 3, "byteOffset" : 20, "componentType" : 5126, "count" : 503, "type" : "VEC3", "max" : [1.0000044107437134, 1.0000044107437134, 1.0000044107437134], "min" : [-1.0000044107437134, -1.0000044107437134, -1.0000044107437134], "name" : "NORMAL"}, {"bufferView" : 0, "byteOffset" : 3216, "componentType" : 5123, "count" : 564, "type" : "SCALAR", "max" : [502], "min" : [0]}, {"bufferView" : 4, "byteOffset" : 0, "componentType" : 5126, "count" : 503, "type" : "VEC3", "max" : [40, 995, -978], "min" : [10, 0, -1000], "name" : "POSITION"}, {"bufferView" : 4, "byteOffset" : 12, "componentType" : 5126, "count" : 503, "type" : "VEC2", "max" : [3.9370079040527344, 1.9685039520263672], "min" : [-0.08661399781703949, -1.9488190412521362], "name" : "TEXCOORD_0"}, {"bufferView" : 4, "byteOffset" : 20, "componentType" : 5126, "count" : 503, "type" : "VEC3", "max" : [1.0000044107437134, 1.0000044107437134, 1.0000044107437134], "min" : [-1.0000044107437134, -1.0000044107437134, -1.0000044107437134], "name" : "NORMAL"}, {"bufferView" : 0, "byteOffset" : 4344, "componentType" : 5123, "count" : 36, "type" : "SCALAR", "max" : [35], "min" : [0]}, {"bufferView" : 5, "byteOffset" : 0, "componentType" : 5126, "count" : 36, "type" : "VEC3", "max" : [40, 978, -22.000015258789062], "min" : [10, 22, -978], "name" : "POSITION"}, {"bufferView" : 5, "byteOffset" : 12, "componentType" : 5126, "count" : 36, "type" : "VEC2", "max" : [5.301097869873047, 2.6505489349365234], "min" : [-2.6505489349365234, -2.6505489349365234], "name" : "TEXCOORD_0"}, {"bufferView" : 5, "byteOffset" : 20, "componentType" : 5126, "count" : 36, "type" : "VEC3", "max" : [1.0000044107437134, 1.0000044107437134, 1.0000044107437134], "min" : [-1.0000044107437134, -1.0000044107437134, -1.0000044107437134], "name" : "NORMAL"}, {"bufferView" : 0, "byteOffset" : 4416, "componentType" : 5123, "count" : 84, "type" : "SCALAR", "max" : [79], "min" : [0]}, {"bufferView" : 6, "byteOffset" : 0, "componentType" : 5126, "count" : 80, "type" : "VEC3", "max" : [50, 1000, -0], "min" : [40, 0, -1000], "name" : "POSITION"}, {"bufferView" : 6, "byteOffset" : 12, "componentType" : 5126, "count" : 80, "type" : "VEC2", "max" : [100, 50], "min" : [-50, -50], "name" : "TEXCOORD_0"}, {"bufferView" : 6, "byteOffset" : 20, "componentType" : 5126, "count" : 80, "type" : "VEC3", "max" : [1.0000044107437134, 1.0000044107437134, 1.0000044107437134], "min" : [-1.0000044107437134, -1.0000044107437134, -1.0000044107437134], "name" : "NORMAL"}, {"bufferView" : 0, "byteOffset" : 4584, "componentType" : 5123, "count" : 7794, "type" : "SCALAR", "max" : [6519], "min" : [0]}, {"bufferView" : 7, "byteOffset" : 0, "componentType" : 5126, "count" : 6520, "type" : "VEC3", "max" : [31.5, 993.234130859375, -905.765869140625], "min" : [-0.5, 984.765869140625, -914.234130859375], "name" : "POSITION"}, {"bufferView" : 7, "byteOffset" : 12, "componentType" : 5126, "count" : 6520, "type" : "VEC2", "max" : [1.3659679889678955, 1.335176944732666], "min" : [-1.3659679889678955, -9.384087562561035], "name" : "TEXCOORD_0"}, {"bufferView" : 7, "byteOffset" : 20, "componentType" : 5126, "count" : 6520, "type" : "VEC3", "max" : [0.9926198124885559, 0.999947726726532, 0.99993896484375], "min" : [-1.0000044107437134, -0.9999960660934448, -0.9999989867210388], "name" : "NORMAL"}, {"bufferView" : 0, "byteOffset" : 20172, "componentType" : 5123, "count" : 7794, "type" : "SCALAR", "max" : [6519], "min" : [0]}, {"bufferView" : 8, "byteOffset" : 0, "componentType" : 5126, "count" : 6520, "type" : "VEC3", "max" : [31.5, 914.2489624023438, -984.7510375976562], "min" : [-0.5, 905.7510375976562, -993.2489624023438], "name" : "POSITION"}, {"bufferView" : 8, "byteOffset" : 12, "componentType" : 5126, "count" : 6520, "type" : "VEC2", "max" : [1.3659679889678955, 1.335176944732666], "min" : [-1.3659679889678955, -9.384087562561035], "name" : "TEXCOORD_0"}, {"bufferView" : 8, "byteOffset" : 20, "componentType" : 5126, "count" : 6520, "type" : "VEC3", "max" : [0.9926198720932007, 0.9999449849128723, 0.999998152256012], "min" : [-1.0000044107437134, -0.9999971389770508, -0.9999418258666992], "name" : "NORMAL"}, {"bufferView" : 0, "byteOffset" : 35760, "componentType" : 5123, "count" : 7794, "type" : "SCALAR", "max" : [6519], "min" : [0]}, {"bufferView" : 9, "byteOffset" : 0, "componentType" : 5126, "count" : 6520, "type" : "VEC3", "max" : [31.5, 993.24267578125, -85.75731658935547], "min" : [-0.5, 984.75732421875, -94.24268341064453], "name" : "POSITION"}, {"bufferView" : 9, "byteOffset" : 12, "componentType" : 5126, "count" : 6520, "type" : "VEC2", "max" : [1.3659679889678955, 1.335176944732666], "min" : [-1.3659679889678955, -9.384087562561035], "name" : "TEXCOORD_0"}, {"bufferView" : 9, "byteOffset" : 20, "componentType" : 5126, "count" : 6520, "type" : "VEC3", "max" : [0.9926198124885559, 0.9999671578407288, 0.9999181032180786], "min" : [-1.0000044107437134, -0.9999877214431763, -1.0000030994415283], "name" : "NORMAL"}, {"bufferView" : 0, "byteOffset" : 51348, "componentType" : 5123, "count" : 7794, "type" : "SCALAR", "max" : [6519], "min" : [0]}, {"bufferView" : 10, "byteOffset" : 0, "componentType" : 5126, "count" : 6520, "type" : "VEC3", "max" : [31.5, 914.234375, -6.76564884185791], "min" : [-0.5, 905.765625, -15.23435115814209], "name" : "POSITION"}, {"bufferView" : 10, "byteOffset" : 12, "componentType" : 5126, "count" : 6520, "type" : "VEC2", "max" : [1.3659679889678955, 1.335176944732666], "min" : [-1.3659679889678955, -9.384087562561035], "name" : "TEXCOORD_0"}, {"bufferView" : 10, "byteOffset" : 20, "componentType" : 5126, "count" : 6520, "type" : "VEC3", "max" : [0.9926198124885559, 1.0000026226043701, 1.0000040531158447], "min" : [-1.0000044107437134, -0.9999951720237732, -0.9999891519546509], "name" : "NORMAL"}, {"bufferView" : 0, "byteOffset" : 66936, "componentType" : 5123, "count" : 7794, "type" : "SCALAR", "max" : [6519], "min" : [0]}, {"bufferView" : 11, "byteOffset" : 0, "componentType" : 5126, "count" : 6520, "type" : "VEC3", "max" : [31.5, 94.25, -984.75], "min" : [-0.5, 85.75, -993.25], "name" : "POSITION"}, {"bufferView" : 11, "byteOffset" : 12, "componentType" : 5126, "count" : 6520, "type" : "VEC2", "max" : [1.3659679889678955, 1.335176944732666], "min" : [-1.3659679889678955, -9.384087562561035], "name" : "TEXCOORD_0"}, {"bufferView" : 11, "byteOffset" : 20, "componentType" : 5126, "count" : 6520, "type" : "VEC3", "max" : [0.9926198720932007, 1.0000044107437134, 1.0000044107437134], "min" : [-1.0000044107437134, -1.0000044107437134, -1.0000044107437134], "name" : "NORMAL"}, {"bufferView" : 0, "byteOffset" : 82524, "componentType" : 5123, "count" : 7794, "type" : "SCALAR", "max" : [6519], "min" : [0]}, {"bufferView" : 12, "byteOffset" : 0, "componentType" : 5126, "count" : 6520, "type" : "VEC3", "max" : [31.5, 15.25, -905.75], "min" : [-0.5, 6.75, -914.25], "name" : "POSITION"}, {"bufferView" : 12, "byteOffset" : 12, "componentType" : 5126, "count" : 6520, "type" : "VEC2", "max" : [1.3659679889678955, 1.335176944732666], "min" : [-1.3659679889678955, -9.384087562561035], "name" : "TEXCOORD_0"}, {"bufferView" : 12, "byteOffset" : 20, "componentType" : 5126, "count" : 6520, "type" : "VEC3", "max" : [0.9926198720932007, 1.0000044107437134, 1.0000044107437134], "min" : [-1.0000044107437134, -1.0000044107437134, -1.0000044107437134], "name" : "NORMAL"}, {"bufferView" : 0, "byteOffset" : 98112, "componentType" : 5123, "count" : 7794, "type" : "SCALAR", "max" : [6519], "min" : [0]}, {"bufferView" : 13, "byteOffset" : 0, "componentType" : 5126, "count" : 6520, "type" : "VEC3", "max" : [31.5, 94.25, -6.75], "min" : [-0.5, 85.75, -15.25], "name" : "POSITION"}, {"bufferView" : 13, "byteOffset" : 12, "componentType" : 5126, "count" : 6520, "type" : "VEC2", "max" : [1.3659679889678955, 1.335176944732666], "min" : [-1.3659679889678955, -9.384087562561035], "name" : "TEXCOORD_0"}, {"bufferView" : 13, "byteOffset" : 20, "componentType" : 5126, "count" : 6520, "type" : "VEC3", "max" : [0.9926198720932007, 1.0000044107437134, 1.0000044107437134], "min" : [-1.0000044107437134, -1.0000044107437134, -1.0000044107437134], "name" : "NORMAL"}, {"bufferView" : 0, "byteOffset" : 113700, "componentType" : 5123, "count" : 7794, "type" : "SCALAR", "max" : [6519], "min" : [0]}, {"bufferView" : 14, "byteOffset" : 0, "componentType" : 5126, "count" : 6520, "type" : "VEC3", "max" : [31.5, 15.25, -85.75], "min" : [-0.5, 6.75, -94.25], "name" : "POSITION"}, {"bufferView" : 14, "byteOffset" : 12, "componentType" : 5126, "count" : 6520, "type" : "VEC2", "max" : [1.3659679889678955, 1.335176944732666], "min" : [-1.3659679889678955, -9.384087562561035], "name" : "TEXCOORD_0"}, {"bufferView" : 14, "byteOffset" : 20, "componentType" : 5126, "count" : 6520, "type" : "VEC3", "max" : [0.9926198720932007, 1.0000044107437134, 1.0000044107437134], "min" : [-1.0000044107437134, -1.0000044107437134, -1.0000044107437134], "name" : "NORMAL"}, {"bufferView" : 0, "byteOffset" : 129288, "componentType" : 5123, "count" : 564, "type" : "SCALAR", "max" : [494], "min" : [0]}, {"bufferView" : 15, "byteOffset" : 0, "componentType" : 5126, "count" : 495, "type" : "VEC3", "max" : [40, 22, -0], "min" : [10, -0, -1000], "name" : "POSITION"}, {"bufferView" : 15, "byteOffset" : 12, "componentType" : 5126, "count" : 495, "type" : "VEC2", "max" : [3.8503940105438232, 1.9685039520263672], "min" : [-0.08661399781703949, -1.9685039520263672], "name" : "TEXCOORD_0"}, {"bufferView" : 15, "byteOffset" : 20, "componentType" : 5126, "count" : 495, "type" : "VEC3", "max" : [1.0000044107437134, 1.0000044107437134, 1.0000044107437134], "min" : [-1.0000044107437134, -1.0000044107437134, -1.0000044107437134], "name" : "NORMAL"}, {"bufferView" : 0, "byteOffset" : 130416, "componentType" : 5123, "count" : 132, "type" : "SCALAR", "max" : [123], "min" : [0]}, {"bufferView" : 16, "byteOffset" : 0, "componentType" : 5126, "count" : 124, "type" : "VEC3", "max" : [40, 1000, 0], "min" : [10, 978, -1000], "name" : "POSITION"}, {"bufferView" : 16, "byteOffset" : 12, "componentType" : 5126, "count" : 124, "type" : "VEC2", "max" : [3.8503940105438232, 1.9685039520263672], "min" : [-0.11811000108718872, -1.9685039520263672], "name" : "TEXCOORD_0"}, {"bufferView" : 16, "byteOffset" : 20, "componentType" : 5126, "count" : 124, "type" : "VEC3", "max" : [1.0000044107437134, 1.0000044107437134, 1.0000044107437134], "min" : [-1.0000044107437134, -1.0000044107437134, -1.0000044107437134], "name" : "NORMAL"}], "asset" : {"generator" : "Aspose.3D 23.7.0", "version" : "2.0"}, "buffers" : [{"uri" : "data:application/octet-stream;base64,", "byteLength" : 2221628}], "bufferViews" : [{"buffer" : 0, "byteOffset" : 0, "byteLength" : 130680, "target" : 34963}, {"buffer" : 0, "byteOffset" : 130684, "byteLength" : 18816, "byteStride" : 32, "target" : 34962}, {"buffer" : 0, "byteOffset" : 149504, "byteLength" : 14592, "byteStride" : 32, "target" : 34962}, {"buffer" : 0, "byteOffset" : 164100, "byteLength" : 18048, "byteStride" : 32, "target" : 34962}, {"buffer" : 0, "byteOffset" : 182152, "byteLength" : 18048, "byteStride" : 32, "target" : 34962}, {"buffer" : 0, "byteOffset" : 200204, "byteLength" : 1152, "byteStride" : 32, "target" : 34962}, {"buffer" : 0, "byteOffset" : 201360, "byteLength" : 2688, "byteStride" : 32, "target" : 34962}, {"buffer" : 0, "byteOffset" : 204052, "byteLength" : 249408, "byteStride" : 32, "target" : 34962}, {"buffer" : 0, "byteOffset" : 453464, "byteLength" : 249408, "byteStride" : 32, "target" : 34962}, {"buffer" : 0, "byteOffset" : 702876, "byteLength" : 249408, "byteStride" : 32, "target" : 34962}, {"buffer" : 0, "byteOffset" : 952288, "byteLength" : 249408, "byteStride" : 32, "target" : 34962}, {"buffer" : 0, "byteOffset" : 1201700, "byteLength" : 249408, "byteStride" : 32, "target" : 34962}, {"buffer" : 0, "byteOffset" : 1451112, "byteLength" : 249408, "byteStride" : 32, "target" : 34962}, {"buffer" : 0, "byteOffset" : 1700524, "byteLength" : 249408, "byteStride" : 32, "target" : 34962}, {"buffer" : 0, "byteOffset" : 1949936, "byteLength" : 249408, "byteStride" : 32, "target" : 34962}, {"buffer" : 0, "byteOffset" : 2199348, "byteLength" : 18048, "byteStride" : 32, "target" : 34962}, {"buffer" : 0, "byteOffset" : 2217400, "byteLength" : 4224, "byteStride" : 32, "target" : 34962}], "images" : [{"uri" : "AcousticShield/Woods & Plastics.Finish Carpentry.Wood.Red Birch.png"}, {"uri" : "AcousticShield/Woods & Plastics.Finish Carpentry.Wood.Cherry.png"}, {"uri" : "AcousticShield/Medrust3.png"}], "materials" : [{"name" : "255,255,255", "pbrMetallicRoughness" : {"baseColorFactor" : [1, 1, 1, 1], "baseColorTexture" : {"index" : 0, "texCoord" : 0}, "metallicFactor" : 0, "roughnessFactor" : 0}, "emissiveFactor" : [0, 0, 0], "alphaMode" : "OPAQUE", "doubleSided" : false}, {"name" : "164,133,98", "pbrMetallicRoughness" : {"baseColorFactor" : [0.643137, 0.521569, 0.384314, 1], "metallicFactor" : 0, "roughnessFactor" : 0}, "emissiveFactor" : [0, 0, 0], "alphaMode" : "OPAQUE", "doubleSided" : false}, {"name" : "255,173,105", "pbrMetallicRoughness" : {"baseColorFactor" : [1, 0.678431, 0.411765, 1], "baseColorTexture" : {"index" : 1, "texCoord" : 0}, "metallicFactor" : 0, "roughnessFactor" : 0}, "emissiveFactor" : [0, 0, 0], "alphaMode" : "OPAQUE", "doubleSided" : false}, {"name" : "255,255,255_1", "pbrMetallicRoughness" : {"baseColorFactor" : [1, 1, 1, 1], "baseColorTexture" : {"index" : 2, "texCoord" : 0}, "metallicFactor" : 0, "roughnessFactor" : 0}, "emissiveFactor" : [0, 0, 0], "alphaMode" : "OPAQUE", "doubleSided" : false}, {"name" : "10,10,10", "pbrMetallicRoughness" : {"baseColorFactor" : [0.039216, 0.039216, 0.039216, 1], "metallicFactor" : 0, "roughnessFactor" : 0}, "emissiveFactor" : [0, 0, 0], "alphaMode" : "OPAQUE", "doubleSided" : false}, {"name" : "190,188,186", "pbrMetallicRoughness" : {"baseColorFactor" : [0.745098, 0.737255, 0.729412, 1], "metallicFactor" : 0, "roughnessFactor" : 0}, "emissiveFactor" : [0, 0, 0], "alphaMode" : "OPAQUE", "doubleSided" : false}, {"name" : "255,173,105", "pbrMetallicRoughness" : {"baseColorFactor" : [1, 0.678431, 0.411765, 1], "baseColorTexture" : {"index" : 1, "texCoord" : 0}, "metallicFactor" : 0, "roughnessFactor" : 0}, "emissiveFactor" : [0, 0, 0], "alphaMode" : "OPAQUE", "doubleSided" : false}], "meshes" : [{"primitives" : [{"attributes" : {"POSITION" : 1, "TEXCOORD_0" : 2, "NORMAL" : 3}, "indices" : 0, "material" : 0, "mode" : 4}, {"attributes" : {"POSITION" : 5, "TEXCOORD_0" : 6, "NORMAL" : 7}, "indices" : 4, "material" : 1, "mode" : 4}], "name" : ""}, {"primitives" : [{"attributes" : {"POSITION" : 9, "TEXCOORD_0" : 10, "NORMAL" : 11}, "indices" : 8, "material" : 2, "mode" : 4}], "name" : ""}, {"primitives" : [{"attributes" : {"POSITION" : 13, "TEXCOORD_0" : 14, "NORMAL" : 15}, "indices" : 12, "mode" : 4}], "name" : ""}, {"primitives" : [{"attributes" : {"POSITION" : 17, "TEXCOORD_0" : 18, "NORMAL" : 19}, "indices" : 16, "material" : 3, "mode" : 4}], "name" : ""}, {"primitives" : [{"attributes" : {"POSITION" : 21, "TEXCOORD_0" : 22, "NORMAL" : 23}, "indices" : 20, "material" : 4, "mode" : 4}], "name" : ""}, {"primitives" : [{"attributes" : {"POSITION" : 25, "TEXCOORD_0" : 26, "NORMAL" : 27}, "indices" : 24, "material" : 5, "mode" : 4}], "name" : ""}, {"primitives" : [{"attributes" : {"POSITION" : 29, "TEXCOORD_0" : 30, "NORMAL" : 31}, "indices" : 28, "mode" : 4}], "name" : ""}, {"primitives" : [{"attributes" : {"POSITION" : 33, "TEXCOORD_0" : 34, "NORMAL" : 35}, "indices" : 32, "mode" : 4}], "name" : ""}, {"primitives" : [{"attributes" : {"POSITION" : 37, "TEXCOORD_0" : 38, "NORMAL" : 39}, "indices" : 36, "mode" : 4}], "name" : ""}, {"primitives" : [{"attributes" : {"POSITION" : 41, "TEXCOORD_0" : 42, "NORMAL" : 43}, "indices" : 40, "mode" : 4}], "name" : ""}, {"primitives" : [{"attributes" : {"POSITION" : 45, "TEXCOORD_0" : 46, "NORMAL" : 47}, "indices" : 44, "mode" : 4}], "name" : ""}, {"primitives" : [{"attributes" : {"POSITION" : 49, "TEXCOORD_0" : 50, "NORMAL" : 51}, "indices" : 48, "mode" : 4}], "name" : ""}, {"primitives" : [{"attributes" : {"POSITION" : 53, "TEXCOORD_0" : 54, "NORMAL" : 55}, "indices" : 52, "mode" : 4}], "name" : ""}, {"primitives" : [{"attributes" : {"POSITION" : 57, "TEXCOORD_0" : 58, "NORMAL" : 59}, "indices" : 56, "material" : 6, "mode" : 4}], "name" : ""}, {"primitives" : [{"attributes" : {"POSITION" : 61, "TEXCOORD_0" : 62, "NORMAL" : 63}, "indices" : 60, "mode" : 4}], "name" : ""}], "nodes" : [{"mesh" : 0, "name" : "Solid1"}, {"mesh" : 1, "name" : "Solid1:1"}, {"mesh" : 2, "name" : "Solid1:2"}, {"mesh" : 3, "name" : "Solid1:3"}, {"mesh" : 4, "name" : "Solid1:4"}, {"mesh" : 5, "name" : "Solid1:5"}, {"mesh" : 6, "name" : "Solid1:6"}, {"mesh" : 7, "name" : "Solid1:7"}, {"mesh" : 8, "name" : "Solid1:8"}, {"mesh" : 9, "name" : "Solid1:9"}, {"mesh" : 10, "name" : "Solid1:10"}, {"mesh" : 11, "name" : "Solid1:11"}, {"mesh" : 12, "name" : "Solid1:12"}, {"mesh" : 13, "name" : "Solid1:13"}, {"mesh" : 14, "name" : "Solid1:14"}], "samplers" : [{"magFilter" : 9729, "minFilter" : 9729, "wrapS" : 10497, "wrapT" : 10497}, {"magFilter" : 9729, "minFilter" : 9729, "wrapS" : 10497, "wrapT" : 10497}, {"magFilter" : 9729, "minFilter" : 9729, "wrapS" : 10497, "wrapT" : 10497}], "scene" : 0, "scenes" : [{"nodes" : [0, 1, 2, 3, 4, 5, 6, 7, 8, 9, 10, 11, 12, 13, 14]}], "textures" : [{"sampler" : 0, "source" : 0, "name" : ""}, {"sampler" : 1, "source" : 1, "name" : ""}, {"sampler" : 2, "source" : 2, "name" : ""}]}